<svg xmlns="http://www.w3.org/2000/svg" viewBox="0 0 19 22.0919" fill="none">
  <path
    d="M0.43934 9.98528C-0.146447 10.5711 -0.146447 11.5208 0.43934 12.1066L9.98528 21.6525C10.5711 22.2383 11.5208 22.2383 12.1066 21.6525C12.6924 21.0668 12.6924 20.117 12.1066 19.5312L3.62132 11.0459L12.1066 2.56066C12.6924 1.97487 12.6924 1.02513 12.1066 0.43934C11.5208 -0.146447 10.5711 -0.146447 9.98528 0.43934L0.43934 9.98528ZM17.5 12.5459C18.3284 12.5459 19 11.8744 19 11.0459C19 10.2175 18.3284 9.54594 17.5 9.54594V11.0459V12.5459ZM1.5 11.0459V12.5459H17.5V11.0459V9.54594H1.5V11.0459Z"
    fill="#76767C"
  />
</svg>
