<svg viewBox="0 0 20 21" fill="none" xmlns="http://www.w3.org/2000/svg">
  <path
    d="M7.834 1.338C8.727 -0.446 11.273 -0.446 12.166 1.338L12.436 1.88C12.885 2.777 13.976 3.14 14.872 2.692C16.433 1.912 18.088 3.567 17.308 5.128C16.86 6.025 17.224 7.116 18.121 7.565L18.662 7.835C20.446 8.727 20.446 11.274 18.662 12.166L18.121 12.437C17.224 12.885 16.86 13.975 17.308 14.872C18.088 16.433 16.433 18.089 14.872 17.309C13.976 16.86 12.885 17.224 12.436 18.121L12.166 18.662C11.273 20.447 8.727 20.447 7.834 18.662L7.564 18.121C7.115 17.224 6.024 16.86 5.127 17.309C3.567 18.089 1.91 16.433 2.691 14.872C3.139 13.975 2.776 12.885 1.879 12.437L1.338 12.166C-0.446 11.274 -0.446 8.727 1.338 7.835L1.879 7.565C2.776 7.116 3.139 6.025 2.691 5.128C1.911 3.567 3.567 1.911 5.127 2.692C6.024 3.14 7.115 2.777 7.564 1.88L7.834 1.338Z"
    fill="#76767C"
  />
  <circle cx="10" cy="10" r="4.33" fill="#FFFFFF"/>
</svg>
